<?xml version="1.0" ?>
<svg width="800px" height="800px" viewBox="0 0 64 64" xmlns="http://www.w3.org/2000/svg">
  <title>Ringing Bell with Sound Waves</title>
  
  <!-- امواج صوتی -->
  <g stroke="#ff6b35" stroke-width="1.5" fill="none" opacity="0.8">
    <!-- موج اول -->
    <path d="M50,32 Q54,30 50,28 Q54,26 50,24">
      <animate attributeName="opacity" values="0;1;0" dur="1.2s" repeatCount="indefinite"/>
      <animateTransform 
        attributeName="transform" 
        type="scale" 
        values="1;1.2;1" 
        dur="1.2s" 
        repeatCount="indefinite"/>
    </path>
    
    <!-- موج دوم -->
    <path d="M55,35 Q60,32 55,29 Q60,26 55,23">
      <animate attributeName="opacity" values="0;1;0" dur="1.2s" begin="0.2s" repeatCount="indefinite"/>
      <animateTransform 
        attributeName="transform" 
        type="scale" 
        values="1;1.3;1" 
        dur="1.2s" 
        begin="0.2s" 
        repeatCount="indefinite"/>
    </path>
    
    <!-- موج سوم -->
    <path d="M14,32 Q10,30 14,28 Q10,26 14,24">
      <animate attributeName="opacity" values="0;1;0" dur="1.2s" begin="0.1s" repeatCount="indefinite"/>
      <animateTransform 
        attributeName="transform" 
        type="scale" 
        values="1;1.2;1" 
        dur="1.2s" 
        begin="0.1s" 
        repeatCount="indefinite"/>
    </path>
    
    <!-- موج چهارم -->
    <path d="M9,35 Q4,32 9,29 Q4,26 9,23">
      <animate attributeName="opacity" values="0;1;0" dur="1.2s" begin="0.3s" repeatCount="indefinite"/>
      <animateTransform 
        attributeName="transform" 
        type="scale" 
        values="1;1.3;1" 
        dur="1.2s" 
        begin="0.3s" 
        repeatCount="indefinite"/>
    </path>
  </g>
  
  <!-- زنگ اصلی با لرزش -->
  <g>
    <animateTransform 
      attributeName="transform"
      type="rotate"
      values="0 32 32; 3 32 32; -3 32 32; 2 32 32; -2 32 32; 0 32 32"
      dur="1.5s"
      repeatCount="indefinite"/>
    
    <!-- آیکون زنگ -->
    <path fill="#ffb300" d="M32,59.59A11.78,11.78,0,0,1,20.7,51a2,2,0,0,1,1.93-2.54H41.37A2,2,0,0,1,43.3,51,11.78,11.78,0,0,1,32,59.59Zm-6.19-7.1a7.73,7.73,0,0,0,12.38,0Z"/>
    
    <path fill="#0074ff" d="M47.91,45.91H16.09a2,2,0,0,1-2-2V26.33a17.91,17.91,0,1,1,35.82,0v2.59a2,2,0,0,1-4,0V26.33a13.91,13.91,0,1,0-27.82,0V41.91H45.91v-2.4a2,2,0,1,1,4,0v4.4A2,2,0,0,1,47.91,45.91Z"/>
    
    <path fill="#0074ff" d="M52.49,52.49h-41a2,2,0,0,1-2-2V43.91a2,2,0,0,1,2-2h41a2,2,0,0,1,2,2v6.58A2,2,0,0,1,52.49,52.49Zm-39-4h37V45.91h-37Z"/>
    
    <path fill="#0074ff" d="M32,12.42a2,2,0,0,1-2-2v-4a2,2,0,1,1,4,0v4A2,2,0,0,1,32,12.42Z"/>
  </g>
</svg>
