<?xml version="1.0" encoding="utf-8"?>
<svg fill="#0066cc" width="22px" height="22px" viewBox="0 0 56 56" xmlns="http://www.w3.org/2000/svg">
  <defs>
    <filter id="lightning-glow">
      <feGaussianBlur stdDeviation="2" result="coloredBlur"/>
      <feMerge> 
        <feMergeNode in="coloredBlur"/>
        <feMergeNode in="SourceGraphic"/>
      </feMerge>
    </filter>
    <animateTransform id="pulse" attributeName="transform" type="scale" 
                      values="1;1.1;1" dur="2.5s" repeatCount="indefinite"/>
  </defs>
  
  <!-- هاله‌های انیمیشنی -->
  <g opacity="0.6" filter="url(#lightning-glow)">
    <path d="M 13.1758 32.5000 L 26.4180 32.5000 L 19.4336 51.4844 C 18.5195 53.8984 21.0273 55.1875 22.6211 53.2187 L 43.9023 26.5938 C 44.3008 26.1016 44.5117 25.6328 44.5117 25.0938 C 44.5117 24.2031 43.8320 23.5000 42.8477 23.5000 L 29.5820 23.5000 L 36.5899 4.5156 C 37.4804 2.1016 34.9961 .8125 33.4023 2.8047 L 12.1211 29.4063 C 11.7226 29.9219 11.4883 30.3906 11.4883 30.9063 C 11.4883 31.8203 12.1914 32.5000 13.1758 32.5000 Z" 
          fill="#0099ff" stroke="#00ccff" stroke-width="1">
      <animate attributeName="opacity" values="0.3;0.8;0.3" dur="2.2s" repeatCount="indefinite"/>
      <animateTransform attributeName="transform" type="scale" 
                        values="1;1.05;1" dur="2.5s" repeatCount="indefinite"/>
    </path>
  </g>
  
  <!-- هاله دوم -->
  <g opacity="0.4" filter="url(#lightning-glow)">
    <path d="M 13.1758 32.5000 L 26.4180 32.5000 L 19.4336 51.4844 C 18.5195 53.8984 21.0273 55.1875 22.6211 53.2187 L 43.9023 26.5938 C 44.3008 26.1016 44.5117 25.6328 44.5117 25.0938 C 44.5117 24.2031 43.8320 23.5000 42.8477 23.5000 L 29.5820 23.5000 L 36.5899 4.5156 C 37.4804 2.1016 34.9961 .8125 33.4023 2.8047 L 12.1211 29.4063 C 11.7226 29.9219 11.4883 30.3906 11.4883 30.9063 C 11.4883 31.8203 12.1914 32.5000 13.1758 32.5000 Z" 
          fill="none" stroke="#00aaff" stroke-width="2">
      <animate attributeName="opacity" values="0.2;0.6;0.2" dur="1.9s" repeatCount="indefinite"/>
      <animateTransform attributeName="transform" type="scale" 
                        values="1;1.08;1" dur="2.9s" repeatCount="indefinite"/>
    </path>
  </g>
  
  <!-- برق اصلی -->
  <path d="M 13.1758 32.5000 L 26.4180 32.5000 L 19.4336 51.4844 C 18.5195 53.8984 21.0273 55.1875 22.6211 53.2187 L 43.9023 26.5938 C 44.3008 26.1016 44.5117 25.6328 44.5117 25.0938 C 44.5117 24.2031 43.8320 23.5000 42.8477 23.5000 L 29.5820 23.5000 L 36.5899 4.5156 C 37.4804 2.1016 34.9961 .8125 33.4023 2.8047 L 12.1211 29.4063 C 11.7226 29.9219 11.4883 30.3906 11.4883 30.9063 C 11.4883 31.8203 12.1914 32.5000 13.1758 32.5000 Z" 
        fill="#0066cc" filter="url(#lightning-glow)">
    <animate attributeName="fill" values="#0066cc;#0099ff;#0066cc" dur="2.5s" repeatCount="indefinite"/>
  </path>
</svg>
