<?xml version="1.0" encoding="utf-8"?>
<svg fill="#000000" height="40px" width="40px" version="1.2" baseProfile="tiny" id="earth" xmlns="http://www.w3.org/2000/svg" xmlns:xlink="http://www.w3.org/1999/xlink"
	  viewBox="0 0 256 163" xml:space="preserve">
<g>
    <!-- بدنه ماشین با انیمیشن لرزش و بالا پایین قوی -->
    <g>
        <!-- لرزش سریع و شدید -->
        <animateTransform 
            attributeName="transform" 
            type="translate" 
            values="0 0;-1 -2;1 3;-0.5 -4;0.5 2;0 0;0 -3;0 4;0 0" 
            dur="0.08s" 
            repeatCount="indefinite"/>
        
        <!-- بالا پایین شدن بزرگ و مداوم -->
        <animateTransform 
            attributeName="transform" 
            type="translate" 
            values="0 0;0 -8;0 5;0 -6;0 7;0 -4;0 3;0 0" 
            dur="1.2s" 
            repeatCount="indefinite" 
            additive="sum"/>
            
        <!-- حرکت جانبی اضافه برای حس بیشتر -->
        <animateTransform 
            attributeName="transform" 
            type="translate" 
            values="0 0;2 0;-1 0;1.5 0;-0.5 0;0 0" 
            dur="0.6s" 
            repeatCount="indefinite" 
            additive="sum"/>
            
        <!-- بدنه اصلی ماشین - رنگ نارنجی -->
        <path fill="#FF8C00" stroke="#E67E00" stroke-width="1" d="M113.4,3v129.3H92.5h-3.2c-0.9,0-1.7-0.6-1.9-1.5C84.8,116,72,104.9,56.5,104.9S28.3,116,25.7,130.7
            c-0.2,0.9-0.9,1.5-1.9,1.5H8.2c-4.6,0-8.2-3.7-8.2-8.2V3H113.4z M256,117.2v6.3
            c0,4.8-3.8,8.7-8.7,8.7H244c-0.9,0-1.7-0.6-1.9-1.5c-2.6-14.7-15.4-25.9-30.8-25.9s-28.3,11.2-30.8,25.9c-0.2,0.9-0.9,1.5-1.9,1.5
            h-57.9V33.5h35.5c2.5,0.1,4.9,1.1,6.6,2.8l38,41c0.3,0.3,0.9,0.6,1.4,0.6h33.3c7.6,0,13.7,6.1,13.7,13.6v24h5
            C255.1,115.4,256,116.3,256,117.2z"/>
            
        <!-- پنجره‌ها - رنگ آبی تیره -->
        <path fill="#FF8C00" stroke="#B8860B" stroke-width="0.8" d="M184,74.6l-27.5-30.3c-0.4-0.3-0.9-0.6-1.5-0.6h-21.9c-1,0-1.9,0.9-1.9,1.9V76
            c0,1,0.9,1.9,1.9,1.9h49.4C184.2,77.9,185,75.9,184,74.6z"/>
    </g>
    
    <!-- چرخ عقب -->
    <g>
        <!-- حرکت مستقل چرخ عقب -->
        <animateTransform 
            attributeName="transform" 
            type="translate" 
            values="0 0;0 -5;0 6;0 -3;0 4;0 0" 
            dur="0.9s" 
            repeatCount="indefinite"/>
            
        <!-- لاستیک چرخ عقب -->
        <path fill="#2C2C2C" d="M80,136.4c0,13-10.5,23.5-23.5,23.5s-23.5-10.5-23.5-23.5s10.5-23.5,23.5-23.5
            S80,123.4,80,136.4z M65.5,136.4c0-4.9-4.1-9-9-9s-9,4.1-9,9c0,4.9,4.1,9,9,9S65.5,141.3,65.5,136.4z"/>
        
        <!-- قالپاق چرخ عقب با انیمیشن چرخش -->
        <g>
            <animateTransform 
                attributeName="transform" 
                type="rotate" 
                values="0 56.5 136.4;360 56.5 136.4" 
                dur="0.6s" 
                repeatCount="indefinite"/>
            
            <!-- مرکز قالپاق -->
            <circle cx="56.5" cy="136.4" r="6" fill="#FF8C00" stroke="#E67E00" stroke-width="1"/>
            
            <!-- خطوط شعاعی قالپاق -->
            <g stroke="#E67E00" stroke-width="1.5" stroke-linecap="round">
                <line x1="56.5" y1="130.4" x2="56.5" y2="142.4"/>
                <line x1="62.5" y1="136.4" x2="50.5" y2="136.4"/>
                <line x1="60.5" y1="132.4" x2="52.5" y2="140.4"/>
                <line x1="60.5" y1="140.4" x2="52.5" y2="132.4"/>
            </g>
            
            <!-- دایره‌های دکوراتیو -->
            <circle cx="56.5" cy="136.4" r="12" fill="none" stroke="#FF8C00" stroke-width="1" opacity="0.8"/>
            <circle cx="56.5" cy="136.4" r="8" fill="none" stroke="#FFA500" stroke-width="0.5" opacity="0.6"/>
            
            <!-- نقاط دکوراتیو -->
            <circle cx="56.5" cy="124.4" r="1" fill="#FF8C00"/>
            <circle cx="56.5" cy="148.4" r="1" fill="#FF8C00"/>
            <circle cx="68.5" cy="136.4" r="1" fill="#FF8C00"/>
            <circle cx="44.5" cy="136.4" r="1" fill="#FF8C00"/>
        </g>
    </g>
    
    <!-- چرخ جلو -->
    <g>
        <!-- حرکت مستقل چرخ جلو -->
        <animateTransform 
            attributeName="transform" 
            type="translate" 
            values="0 0;0 -4;0 7;0 -6;0 2;0 0" 
            dur="1.1s" 
            repeatCount="indefinite"/>
            
        <!-- لاستیک چرخ جلو -->
        <path fill="#2C2C2C" d="M234.8,136.4c0,13-10.5,23.5-23.5,23.5c-13,0-23.5-10.5-23.5-23.5
            s10.5-23.5,23.5-23.5C224.3,112.9,234.8,123.4,234.8,136.4z M220.3,136.4c0-4.9-4.1-9-9-9c-4.9,0-9,4.1-9,9c0,4.9,4.1,9,9,9
            C216.3,145.4,220.3,141.3,220.3,136.4z"/>
        
        <!-- قالپاق چرخ جلو با انیمیشن چرخش -->
        <g>
            <animateTransform 
                attributeName="transform" 
                type="rotate" 
                values="0 211.3 136.4;360 211.3 136.4" 
                dur="0.6s" 
                repeatCount="indefinite"/>
            
            <!-- مرکز قالپاق -->
            <circle cx="211.3" cy="136.4" r="6" fill="#FF8C00" stroke="#E67E00" stroke-width="1"/>
            
            <!-- خطوط شعاعی قالپاق -->
            <g stroke="#E67E00" stroke-width="1.5" stroke-linecap="round">
                <line x1="211.3" y1="130.4" x2="211.3" y2="142.4"/>
                <line x1="217.3" y1="136.4" x2="205.3" y2="136.4"/>
                <line x1="215.3" y1="132.4" x2="207.3" y2="140.4"/>
                <line x1="215.3" y1="140.4" x2="207.3" y2="132.4"/>
            </g>
            
            <!-- دایره‌های دکوراتیو -->
            <circle cx="211.3" cy="136.4" r="12" fill="none" stroke="#FF8C00" stroke-width="1" opacity="0.8"/>
            <circle cx="211.3" cy="136.4" r="8" fill="none" stroke="#FFA500" stroke-width="0.5" opacity="0.6"/>
            
            <!-- نقاط دکوراتیو -->
            <circle cx="211.3" cy="124.4" r="1" fill="#FF8C00"/>
            <circle cx="211.3" cy="148.4" r="1" fill="#FF8C00"/>
            <circle cx="223.3" cy="136.4" r="1" fill="#FF8C00"/>
            <circle cx="199.3" cy="136.4" r="1" fill="#FF8C00"/>
        </g>
    </g>
    
    <!-- انیمیشن خطوط سرعت پرتحرک در پشت ماشین -->
    <g opacity="0.4">
        <animateTransform 
            attributeName="transform" 
            type="translate" 
            values="-20 0;-80 0;-20 0" 
            dur="0.3s" 
            repeatCount="indefinite"/>
        <animate 
            attributeName="opacity" 
            values="0;0.8;0" 
            dur="0.3s" 
            repeatCount="indefinite"/>
            
        <line x1="0" y1="50" x2="25" y2="50" stroke="#FF8C00" stroke-width="3"/>
        <line x1="0" y1="70" x2="30" y2="70" stroke="#FFA500" stroke-width="3"/>
        <line x1="0" y1="90" x2="28" y2="90" stroke="#FF8C00" stroke-width="3"/>
        <line x1="0" y1="110" x2="22" y2="110" stroke="#FFA500" stroke-width="2"/>
    </g>
    
    <!-- ذرات خاک و غبار -->
    <g opacity="0.5">
        <animateTransform 
            attributeName="transform" 
            type="translate" 
            values="250 150;-50 160;250 150" 
            dur="2s" 
            repeatCount="indefinite"/>
        <animate 
            attributeName="opacity" 
            values="0;0.7;0" 
            dur="2s" 
            repeatCount="indefinite"/>
            
        <circle cx="0" cy="0" r="1" fill="#999"/>
        <circle cx="5" cy="2" r="0.5" fill="#aaa"/>
        <circle cx="-3" cy="-1" r="1.5" fill="#888"/>
        <circle cx="8" cy="-2" r="0.8" fill="#bbb"/>
    </g>
</g>
</svg>
