<?xml version="1.0" encoding="utf-8"?>
<svg width="25px" height="25px" viewBox="0 0 24 24" fill="none" xmlns="http://www.w3.org/2000/svg">
  <defs>
    <!-- گرادینت برای رنگ‌آمیزی واقع‌گرایانه‌تر شعله -->
    <linearGradient id="flameGradient" x1="0%" y1="100%" x2="0%" y2="0%">
      <stop offset="0%" style="stop-color:#FF6B35;stop-opacity:1" />
      <stop offset="30%" style="stop-color:#FF8E00;stop-opacity:1" />
      <stop offset="60%" style="stop-color:#FFB347;stop-opacity:1" />
      <stop offset="100%" style="stop-color:#FFEB3B;stop-opacity:1" />
    </linearGradient>
    
    <!-- فیلتر برای ایجاد اثر درخشش -->
    <filter id="glow">
      <feGaussianBlur stdDeviation="2" result="coloredBlur"/>
      <feMerge> 
        <feMergeNode in="coloredBlur"/>
        <feMergeNode in="SourceGraphic"/>
      </feMerge>
    </filter>
  </defs>
  
  <!-- شعله اصلی با انیمیشن -->
  <path d="M5.926 20.574a7.26 7.26 0 0 0 3.039 1.511c.107.035.179-.105.107-.175-2.395-2.285-1.079-4.758-.107-5.873.693-.796 1.68-2.107 1.608-3.865 0-.176.18-.317.322-.211 1.359.703 2.288 2.25 2.538 3.515.394-.386.537-.984.537-1.511 0-.176.214-.317.393-.176 1.287 1.16 3.503 5.097-.072 8.19-.071.071 0 .212.072.177a8.761 8.761 0 0 0 3.003-1.442c5.827-4.5 2.037-12.48-.43-15.116-.321-.317-.893-.106-.893.351-.036.95-.322 2.004-1.072 2.707-.572-2.39-2.478-5.105-5.195-6.441-.357-.176-.786.105-.75.492.07 3.27-2.063 5.352-3.922 8.059-1.645 2.425-2.717 6.89.822 9.808z" 
        fill="url(#flameGradient)" 
        filter="url(#glow)"
        transform-origin="12 15">
    
    <!-- انیمیشن تکان خوردن و پیچیدن شعله -->
    <animateTransform
      attributeName="transform"
      type="rotate"
      values="0 12 20; 3 12 20; -2 12 20; 1 12 20; 0 12 20"
      dur="2s"
      repeatCount="indefinite"/>
    
    <!-- انیمیشن تغییر شکل برای حالت منعطف -->
    <animateTransform
      attributeName="transform"
      type="scale"
      values="1 1; 1.05 0.95; 0.95 1.05; 1.02 0.98; 1 1"
      dur="1.5s"
      repeatCount="indefinite"
      additive="sum"/>
    
    <!-- انیمیشن حرکت جانبی ملایم -->
    <animateTransform
      attributeName="transform"
      type="translate"
      values="0 0; 0.5 -0.3; -0.3 0.2; 0.2 -0.1; 0 0"
      dur="3s"
      repeatCount="indefinite"
      additive="sum"/>
    
    <!-- انیمیشن تغییر شفافیت برای ایجاد اثر سوختن -->
    <animate
      attributeName="opacity"
      values="0.9; 1; 0.85; 0.95; 0.9"
      dur="1.2s"
      repeatCount="indefinite"/>
  </path>
  
  <!-- ذرات کوچک شعله برای اثر بیشتر -->
  <circle cx="11" cy="8" r="0.5" fill="#FFB347" opacity="0.7">
    <animate attributeName="cy" values="8; 6; 8" dur="2s" repeatCount="indefinite"/>
    <animate attributeName="opacity" values="0.7; 0.3; 0.7" dur="2s" repeatCount="indefinite"/>
  </circle>
  
  <circle cx="13" cy="10" r="0.3" fill="#FFEB3B" opacity="0.6">
    <animate attributeName="cy" values="10; 7; 10" dur="2.5s" repeatCount="indefinite"/>
    <animate attributeName="opacity" values="0.6; 0.2; 0.6" dur="2.5s" repeatCount="indefinite"/>
  </circle>
  
  <circle cx="12.5" cy="6" r="0.4" fill="#FF8E00" opacity="0.5">
    <animate attributeName="cy" values="6; 4; 6" dur="1.8s" repeatCount="indefinite"/>
    <animate attributeName="opacity" values="0.5; 0.1; 0.5" dur="1.8s" repeatCount="indefinite"/>
  </circle>
</svg>
